<?xml version="1.0" encoding="UTF-8"?>
<svg width="1683px" height="555px" viewBox="0 0 1683 555" version="1.1" xmlns="http://www.w3.org/2000/svg" xmlns:xlink="http://www.w3.org/1999/xlink">
    <title>footer copy</title>
    <g id="Updates" stroke="none" stroke-width="1" fill="none" fill-rule="evenodd">
        <g id="footer-copy" transform="translate(0.0215, 0.0664)">
            <rect id="Rectangle" fill="#66B22E" x="2.97846769" y="22.9336447" width="1680" height="531"></rect>
            <path d="M1682.54261,4.29681425 C1364.62609,-8.78361337 964.778607,8.00068727 483.000162,54.6497162 C1.22171689,101.298745 -63.9441429,267.74884 287.502583,554 L1682.54261,554 L1682.54261,4.29681425 Z" id="Path-18" fill="#66B32F"></path>
            <path d="M1.39842916,4.29681425 C322.006167,4.29681425 882.425236,33.6759727 1682.65564,92.4342895 L1682.65564,554 L1.39842916,554 C-0.466143053,188.039419 -0.466143053,4.80502389 1.39842916,4.29681425 Z" id="Rectangle" fill="#279A38"></path>
            <path d="M1.39869746,225.682791 C472.355304,202.62979 1032.88189,213.089116 1682.97847,257.06077 L1682.97847,554 L1.39869746,554 C-0.466232487,335.451177 -0.466232487,226.012107 1.39869746,225.682791 Z" id="Rectangle" fill="#008A39"></path>
        </g>
    </g>
</svg>